<?xml version="1.0" standalone="no"?>
<!DOCTYPE svg PUBLIC "-//W3C//DTD SVG 20010904//EN"
 "http://www.w3.org/TR/2001/REC-SVG-20010904/DTD/svg10.dtd">
<svg version="1.0" xmlns="http://www.w3.org/2000/svg"
 width="200" height="200" viewBox="0 0 948.000000 955.000000"
 preserveAspectRatio="xMidYMid meet">

<g transform="translate(0.000000,955.000000) scale(0.100000,-0.100000)"
fill="#000000" stroke="none">
<path d="M0 4775 l0 -4775 4740 0 4740 0 0 4775 0 4775 -4740 0 -4740 0 0
-4775z m9230 -25 l0 -4550 -4550 0 -4550 0 0 4550 0 4550 4550 0 4550 0 0
-4550z"/>
<path d="M8414 8804 c-159 -74 -309 -144 -334 -156 -185 -86 -1108 -514 -1430
-663 -370 -171 -532 -246 -1220 -565 -2393 -1109 -4739 -2190 -4782 -2204 -10
-3 -18 -14 -18 -24 0 -15 19 -26 83 -50 45 -17 339 -125 652 -241 314 -115
791 -290 1060 -389 270 -99 805 -296 1190 -437 385 -142 889 -327 1120 -412
231 -85 474 -174 540 -198 66 -24 383 -141 705 -259 363 -133 587 -211 591
-204 7 12 47 118 419 1133 149 407 399 1087 555 1510 156 424 374 1018 485
1320 420 1144 524 1427 616 1675 52 141 94 260 94 265 0 6 -8 15 -18 21 -15
10 -67 -11 -308 -122z m251 39 c-7 -19 -498 -1350 -723 -1963 -72 -195 -259
-706 -417 -1135 -158 -429 -354 -962 -435 -1185 -82 -223 -239 -649 -348 -948
-110 -299 -202 -545 -205 -548 -2 -3 -206 69 -453 160 -412 151 -670 246
-1799 661 -214 79 -703 258 -1085 399 -382 140 -1039 381 -1460 536 -421 155
-818 301 -882 323 -65 23 -118 44 -118 47 0 3 78 41 173 84 94 43 296 136 447
206 151 71 417 193 590 273 173 80 356 164 405 187 106 49 408 188 585 270
110 50 358 165 1150 532 118 55 321 148 450 208 129 59 368 170 530 245 162
76 320 149 350 163 30 13 118 54 195 90 427 197 973 450 1205 557 146 67 306
141 355 165 50 23 167 77 260 120 94 43 211 97 260 120 100 47 207 97 335 156
46 21 206 96 355 166 148 69 274 127 279 127 4 1 5 -7 1 -16z"/>
<path d="M4627 6434 c-4 -4 -7 -313 -7 -686 l0 -678 -410 0 c-351 0 -410 2
-410 14 0 8 9 64 20 123 20 106 30 164 70 393 11 63 26 151 34 195 8 44 21
121 30 170 9 50 25 140 36 201 11 61 20 123 20 138 0 27 -1 27 -62 24 l-62 -3
-22 -130 c-25 -145 -44 -254 -74 -425 -56 -319 -140 -805 -140 -812 0 -4 218
-8 485 -8 l485 0 0 -220 0 -220 65 0 65 0 0 220 0 220 130 0 130 0 0 60 0 60
-130 0 -130 0 -2 683 -3 682 -55 3 c-31 2 -59 0 -63 -4z"/>
<path d="M6529 6429 c-303 -39 -552 -164 -693 -348 -98 -127 -152 -261 -187
-459 -25 -147 -27 -546 -4 -668 45 -238 165 -380 375 -446 66 -20 95 -23 235
-23 126 1 173 5 220 19 242 74 367 235 395 511 35 348 -96 593 -365 682 -70
23 -97 26 -220 27 -109 1 -153 -3 -200 -17 -139 -43 -242 -124 -295 -233 l-29
-59 0 60 c-2 140 50 329 121 450 128 216 370 346 718 385 58 6 107 13 109 15
2 2 0 29 -4 60 l-6 55 -52 -1 c-29 -1 -82 -5 -118 -10z m-120 -839 c160 -30
283 -157 320 -328 14 -67 14 -221 0 -297 -22 -121 -94 -236 -181 -291 -77 -49
-154 -67 -283 -67 -95 0 -134 5 -187 22 -75 24 -159 76 -201 124 -71 81 -116
218 -117 349 0 247 125 425 340 482 64 17 234 20 309 6z"/>
<path d="M5091 8643 l-24 -5 6 -141 5 -142 -51 -29 c-158 -87 -357 -211 -357
-222 0 -31 26 -21 117 44 117 83 282 186 289 180 2 -3 11 -65 20 -139 32 -275
76 -487 124 -595 29 -65 60 -94 98 -94 24 0 23 1 -11 39 -44 49 -86 174 -126
380 -31 155 -65 415 -58 435 3 6 43 31 90 54 85 42 141 53 150 30 2 -7 8 -10
12 -6 4 4 5 14 2 23 -11 27 -69 17 -158 -27 -46 -23 -87 -44 -91 -46 -5 -2 -8
39 -8 91 0 92 13 157 31 157 5 0 9 5 9 10 0 10 -25 11 -69 3z"/>
<path d="M4046 8128 c-8 -13 -18 -45 -22 -73 -4 -27 -21 -84 -37 -125 -17 -41
-56 -151 -88 -245 l-57 -170 -7 119 c-8 124 -1 262 17 333 11 45 31 69 63 75
19 4 19 5 -3 17 -13 7 -35 10 -48 7 -104 -27 -92 -494 25 -949 23 -88 35 -116
56 -135 24 -20 55 -23 74 -6 17 16 -62 295 -120 423 -16 35 -29 74 -29 87 0
23 121 399 138 430 5 9 15 -46 26 -143 28 -250 94 -552 141 -642 16 -31 58
-57 76 -45 31 19 -19 281 -86 449 l-28 69 28 21 c15 11 54 41 85 67 l58 48 12
-29 c6 -16 22 -33 35 -39 16 -8 25 -22 30 -50 8 -51 37 -82 76 -82 24 0 33 6
44 33 7 17 16 49 20 70 6 28 20 51 52 80 58 54 127 187 103 202 -4 2 -13 -16
-19 -41 -7 -25 -19 -58 -28 -72 -21 -34 -84 -102 -95 -102 -4 0 -8 24 -8 53 0
62 -16 125 -38 150 -9 11 -30 17 -55 17 -34 0 -46 -6 -78 -40 -26 -27 -41 -54
-45 -80 -5 -32 -18 -48 -75 -98 -155 -132 -166 -120 -168 196 -1 124 2 147 19
179 14 27 17 40 8 50 -16 19 -36 16 -52 -9z m431 -220 c17 -22 32 -78 39 -144
l7 -64 -34 -14 c-19 -8 -38 -12 -42 -9 -5 3 -7 34 -6 69 1 39 -2 69 -9 76 -20
20 -44 -15 -50 -71 -6 -69 -32 -63 -32 7 0 101 86 202 127 150z m33 -263 c0
-30 -26 -85 -40 -85 -12 0 -16 9 -24 53 -6 33 -4 38 16 47 38 15 48 11 48 -15z
m-370 -118 c52 -116 108 -367 81 -367 -6 0 -17 12 -24 28 -37 71 -115 402 -95
402 5 0 22 -28 38 -63z m-237 -197 c30 -76 66 -208 81 -297 7 -42 -9 -51 -28
-15 -24 46 -110 418 -93 402 3 -3 21 -43 40 -90z"/>
<path d="M5036 8058 c-17 -29 -40 -63 -53 -76 l-24 -24 -39 36 c-22 20 -46 33
-53 30 -21 -8 -43 -62 -63 -152 -11 -45 -21 -82 -24 -82 -3 0 -11 57 -17 127
-10 101 -16 130 -29 140 -29 21 -37 15 -30 -19 4 -18 15 -98 26 -178 16 -123
22 -147 40 -162 12 -10 25 -16 30 -13 4 2 10 37 13 77 7 89 34 203 53 219 11
9 21 5 45 -15 56 -48 85 -34 133 62 36 72 29 96 -8 30z"/>
<path d="M3325 7965 c-63 -64 -140 -210 -156 -295 -13 -71 -3 -145 25 -176 28
-33 92 -55 124 -43 21 8 23 7 17 -8 -88 -217 -105 -364 -56 -462 53 -103 174
-108 251 -11 41 51 107 178 174 333 62 141 60 137 45 137 -6 0 -33 -48 -60
-107 -109 -236 -153 -309 -221 -367 -64 -55 -112 -46 -143 27 -45 109 20 410
120 548 40 56 41 59 19 59 -9 0 -45 -27 -80 -60 -88 -81 -133 -91 -155 -33
-35 91 49 325 159 444 28 31 52 59 52 63 0 3 -14 6 -31 6 -24 0 -42 -12 -84
-55z"/>
<path d="M2940 4126 c-173 -61 -423 -228 -480 -321 -37 -60 -19 -155 34 -174
22 -9 98 4 259 43 149 35 182 39 197 21 10 -12 8 -22 -14 -55 -14 -22 -36 -42
-49 -45 -12 -2 -76 -16 -142 -31 -292 -63 -505 -164 -505 -240 0 -29 33 -69
70 -84 43 -18 143 -8 210 21 121 51 244 137 369 257 l75 72 119 0 c91 0 118 3
114 13 -3 9 -33 11 -114 10 l-110 -2 4 43 c4 35 1 48 -16 65 -29 29 -64 27
-252 -14 -241 -53 -275 -46 -230 43 45 88 178 193 342 271 194 92 306 105 323
36 6 -24 26 -36 26 -15 0 22 -41 90 -59 100 -32 17 -102 11 -171 -14z m-115
-602 c-71 -64 -227 -166 -320 -211 -125 -59 -235 -57 -235 4 0 55 225 163 475
228 132 34 139 32 80 -21z"/>
<path d="M3257 3646 c-49 -51 -166 -182 -220 -245 -82 -95 -105 -159 -66 -184
13 -8 50 16 185 120 250 193 294 222 294 197 0 -4 -31 -43 -69 -88 -98 -116
-115 -153 -87 -191 18 -24 30 -19 178 76 60 39 112 68 115 65 3 -3 -13 -30
-35 -60 -63 -84 -79 -120 -62 -150 17 -33 31 -37 77 -24 48 13 213 94 233 115
8 8 -13 1 -47 -16 -69 -34 -208 -91 -223 -91 -19 0 -10 28 26 81 67 100 78
135 49 159 -21 17 -50 7 -130 -45 -88 -58 -145 -88 -145 -77 0 5 34 53 75 107
75 97 92 131 81 160 -15 39 -88 -1 -303 -168 -159 -123 -203 -153 -203 -142 0
21 140 186 273 322 55 56 78 86 74 97 -10 25 -36 19 -70 -18z"/>
<path d="M4536 3567 c-242 -248 -642 -760 -661 -848 -10 -43 16 -79 58 -79 43
0 149 73 358 246 194 161 184 152 177 160 -4 3 -49 -30 -100 -73 -269 -228
-458 -353 -458 -302 0 19 58 126 111 205 170 253 478 625 591 714 40 32 55 39
76 33 26 -6 26 -6 11 18 -32 48 -53 38 -163 -74z"/>
<path d="M4016 3436 c-28 -38 -33 -56 -13 -56 23 1 69 47 65 65 -5 31 -24 27
-52 -9z"/>
<path d="M3872 3288 c-9 -11 -31 -37 -48 -57 -47 -54 -104 -147 -104 -170 0
-26 35 -36 97 -27 49 6 313 128 313 144 0 6 -47 -14 -104 -43 -150 -76 -286
-117 -286 -87 0 27 101 135 175 189 27 19 28 23 17 47 -14 32 -36 33 -60 4z"/>
<path d="M4570 3030 c-74 -21 -167 -107 -189 -172 -22 -67 14 -117 86 -118 67
0 342 101 351 129 3 8 -8 7 -34 -5 -238 -103 -320 -126 -360 -100 -28 19 -29
25 -11 69 20 47 62 93 120 131 60 40 101 53 112 36 18 -28 -63 -72 -91 -49
-17 14 -19 -2 -2 -19 31 -31 118 8 118 52 0 39 -49 61 -100 46z"/>
<path d="M1471 2419 c-11 -17 -32 -60 -48 -95 l-28 -63 -70 -16 c-111 -27
-296 -85 -322 -102 -25 -17 -39 -53 -29 -78 5 -13 11 -12 43 8 77 47 286 127
334 127 16 0 16 -4 -6 -57 -150 -374 -285 -870 -285 -1055 l0 -47 -57 -11
c-127 -25 -298 -94 -310 -126 -3 -8 0 -21 7 -29 11 -13 17 -12 47 6 84 52 237
109 294 109 15 0 34 -12 51 -32 23 -28 29 -31 38 -18 5 8 10 27 10 43 l0 27
98 0 c95 -1 186 -15 249 -41 38 -16 46 -10 37 25 -10 40 -88 59 -251 60 l-132
1 4 35 c3 19 9 76 15 125 17 136 56 324 101 485 49 173 75 247 141 402 37 88
55 117 71 122 33 9 137 7 180 -3 42 -10 52 -2 43 35 -9 35 -42 44 -126 33 -41
-5 -75 -7 -77 -6 -9 10 59 87 77 87 29 0 24 25 -11 54 -41 34 -65 33 -88 -5z"/>
<path d="M2981 2253 c-87 -43 -201 -253 -301 -554 -23 -68 -43 -126 -46 -128
-2 -3 -10 1 -16 7 -7 7 -26 12 -43 12 -27 0 -43 -12 -106 -82 -187 -210 -303
-318 -340 -318 -18 0 -19 4 -13 38 3 20 21 84 39 142 73 233 78 267 45 300
-25 25 -41 25 -92 -1 -84 -43 -204 -178 -347 -392 -29 -43 -54 -77 -57 -75 -9
10 49 195 97 309 67 162 69 173 31 193 -27 14 -31 14 -45 -2 -21 -25 -47 -78
-47 -99 0 -10 -22 -83 -49 -163 -61 -178 -87 -300 -72 -329 16 -29 53 -38 66
-16 5 10 49 77 96 149 137 208 257 354 327 398 59 36 59 14 4 -149 -64 -188
-78 -261 -58 -302 24 -45 80 -56 126 -24 80 54 266 246 345 356 20 28 21 28
58 12 20 -8 37 -19 37 -25 0 -5 -16 -73 -35 -152 -79 -320 -115 -621 -86 -710
27 -81 103 -115 137 -62 76 114 95 571 39 884 l-7 35 149 17 c81 10 158 20
171 24 19 6 22 3 22 -25 0 -34 23 -96 44 -121 12 -13 12 -26 -1 -87 -13 -66
-13 -75 3 -108 10 -22 30 -43 50 -52 56 -27 104 6 188 132 22 32 36 42 79 52
107 27 228 107 305 200 31 38 32 43 16 50 -12 5 -22 -1 -33 -18 -50 -81 -201
-188 -291 -206 -30 -6 -33 -4 -25 13 38 86 68 196 69 256 1 64 -1 69 -32 100
-30 31 -37 33 -100 33 -52 -1 -78 -7 -118 -27 -51 -27 -107 -81 -126 -123 -6
-13 -25 -27 -47 -33 -90 -27 -301 -43 -301 -22 0 15 83 215 135 325 60 126
146 257 191 292 32 24 39 26 75 16 53 -14 58 0 16 42 -40 40 -72 44 -126 18z
m384 -533 c34 -37 7 -213 -51 -333 l-18 -38 -51 6 c-27 4 -53 10 -57 14 -4 3
13 48 37 100 25 51 45 102 45 112 0 11 -11 25 -25 31 -23 10 -29 8 -60 -22
-19 -18 -47 -57 -62 -87 -32 -60 -43 -66 -43 -24 0 38 25 97 45 105 9 3 13 11
10 16 -11 17 61 96 107 119 54 27 99 27 123 1z m-701 -605 c1 -261 -12 -377
-51 -467 -18 -42 -24 -45 -43 -23 -10 12 -11 57 -7 188 6 170 16 249 58 481
32 172 42 129 43 -179z m609 205 c9 -8 -52 -95 -87 -122 -11 -10 -29 -18 -38
-18 -28 0 -25 32 16 145 4 11 96 8 109 -5z"/>
<path d="M5527 2081 c-61 -93 -142 -337 -234 -706 -42 -171 -103 -478 -103
-520 0 -35 15 -55 41 -55 14 0 19 12 24 58 31 288 87 530 195 847 85 250 135
335 196 335 32 0 30 16 -7 51 -45 42 -80 39 -112 -10z"/>
<path d="M7857 1883 c-229 -356 -337 -550 -337 -608 0 -54 28 -114 62 -131 34
-18 60 -12 174 42 39 19 73 34 76 34 3 0 2 -17 -3 -37 -22 -95 -4 -216 38
-255 l26 -23 -7 30 c-4 17 -10 62 -12 100 -4 58 0 84 23 150 27 76 30 81 78
107 28 15 55 30 60 32 6 3 2 11 -9 20 -13 10 -25 12 -42 6 -21 -8 -23 -7 -14
14 5 13 32 69 60 126 55 109 58 140 20 175 -14 13 -20 14 -26 3 -20 -32 -84
-171 -118 -258 -21 -52 -41 -101 -44 -108 -15 -29 -246 -110 -278 -98 -49 19
28 173 230 460 147 210 151 217 131 256 -9 17 -22 30 -30 30 -8 0 -34 -30 -58
-67z"/>
<path d="M8584 1841 c-75 -55 -148 -155 -228 -310 -116 -227 -130 -382 -42
-476 27 -29 41 -35 73 -35 71 0 153 80 219 210 50 99 40 181 -26 215 -63 32
-122 13 -188 -62 -30 -34 -33 -35 -27 -13 26 101 156 312 233 381 53 46 80 55
122 41 42 -15 40 7 -5 47 -45 39 -80 40 -131 2z m16 -440 c5 -11 10 -28 10
-39 0 -35 -62 -143 -116 -201 -57 -62 -97 -85 -136 -79 -21 3 -23 8 -22 58 2
90 74 212 154 259 45 27 96 28 110 2z"/>
<path d="M4015 1712 c-109 -58 -130 -72 -220 -138 -81 -61 -112 -103 -95 -134
15 -28 25 -25 49 13 25 42 110 122 174 166 58 40 163 89 197 93 55 6 20 -45
-215 -312 -136 -155 -225 -273 -225 -299 0 -9 9 -31 21 -50 17 -28 24 -32 49
-28 37 8 127 63 311 192 81 57 181 125 223 152 47 30 75 55 76 66 0 35 -29 29
-90 -18 -98 -76 -361 -248 -418 -274 -111 -51 -84 1 126 247 217 253 228 271
211 321 -12 33 -35 51 -66 51 -10 0 -58 -22 -108 -48z"/>
<path d="M5570 1641 c-91 -98 -180 -266 -180 -342 0 -61 53 -119 108 -119 36
0 157 70 238 137 108 91 324 294 324 305 0 31 -40 3 -152 -106 -193 -188 -346
-296 -419 -296 l-32 0 6 57 c4 36 19 84 41 128 40 80 131 195 176 221 34 21
39 48 11 64 -40 21 -64 11 -121 -49z"/>
<path d="M4583 1667 c-55 -30 -148 -191 -178 -305 -18 -71 -15 -89 20 -122 22
-20 27 -21 54 -11 35 15 125 106 251 254 51 59 94 106 96 104 2 -2 -19 -69
-46 -149 -58 -172 -75 -254 -60 -292 16 -42 58 -76 96 -76 45 0 110 62 306
289 139 163 180 221 149 209 -10 -3 -266 -286 -291 -320 -25 -36 -153 -138
-172 -138 -10 0 -21 6 -24 14 -7 17 30 160 86 339 44 142 47 168 24 191 -30
30 -50 17 -133 -84 -169 -206 -270 -308 -293 -294 -16 10 1 74 38 144 40 76
113 164 155 186 26 13 31 13 54 -2 36 -24 50 -13 25 19 -38 48 -112 69 -157
44z"/>
<path d="M6162 1660 c-40 -25 -100 -116 -141 -215 -40 -96 -49 -156 -28 -189
44 -67 90 -39 273 169 75 86 138 154 141 152 2 -3 -12 -52 -32 -109 -46 -131
-75 -246 -75 -293 0 -29 8 -45 34 -71 40 -40 73 -44 121 -14 45 28 415 446
415 469 0 26 -24 4 -126 -111 -206 -236 -314 -338 -357 -338 -18 0 -19 5 -14
48 3 26 22 101 42 167 94 318 89 293 71 320 -29 44 -50 32 -153 -92 -121 -147
-220 -251 -255 -269 -28 -14 -28 -14 -28 19 0 74 115 250 194 298 28 17 31 17
58 2 33 -20 44 -13 28 17 -12 23 -82 59 -115 60 -11 0 -35 -9 -53 -20z"/>
</g>
</svg>
